<?xml version="1.0" encoding="UTF-8"?>
<svg version="1.1" xmlns="http://www.w3.org/2000/svg" width="30" height="30">
<path d="M0 0 C1.62711914 -0.00503792 1.62711914 -0.00503792 3.28710938 -0.01017761 C6.83643777 -0.01959552 10.38571852 -0.02162618 13.93505859 -0.02270508 C16.43069477 -0.02592436 18.92633076 -0.02928892 21.42196655 -0.03279114 C26.64166704 -0.03875979 31.86135103 -0.04063341 37.08105469 -0.04003906 C43.72428461 -0.03993765 50.36740442 -0.05357847 57.0106144 -0.07081127 C62.16348747 -0.08200601 67.31633522 -0.08395598 72.46921921 -0.08342934 C74.91608423 -0.08459866 77.36295014 -0.0889605 79.80980301 -0.0967617 C104.42428039 -0.16788692 127.0476101 2.20423295 150.45849609 10.14526367 C151.54904297 10.51393555 152.63958984 10.88260742 153.76318359 11.26245117 C196.24433015 26.62346427 229.06662611 60.52561298 248.20849609 100.70776367 C252.82085493 110.70774461 256.07812074 121.08025786 258.64599609 131.77026367 C258.80092529 132.41398926 258.95585449 133.05771484 259.11547852 133.72094727 C259.60315115 135.85587561 260.03365875 137.99689086 260.45849609 140.14526367 C260.7130658 141.39611 260.7130658 141.39611 260.97277832 142.67222595 C262.87490627 153.27454635 262.76781222 163.80816165 262.75927734 174.54760742 C262.76317177 176.5997374 262.76750796 178.65186658 262.77226257 180.70399475 C262.7796801 184.97944775 262.77946373 189.25481806 262.77416992 193.53027344 C262.7683456 199.00329609 262.78539909 204.47598358 262.8085146 209.94895077 C262.82324537 214.17574533 262.82412513 218.40245869 262.82100487 222.62927437 C262.82151724 224.64786003 262.82673911 226.66645034 262.83681679 228.68501091 C262.84916697 231.50133104 262.84240076 234.31699107 262.83081055 237.13330078 C262.83845428 237.96092422 262.84609802 238.78854767 262.85397339 239.64125061 C262.80180299 245.38299115 261.76562244 249.64412897 257.73974609 254.00854492 C257.15193359 254.48678711 256.56412109 254.9650293 255.95849609 255.45776367 C255.37068359 255.94889648 254.78287109 256.4400293 254.17724609 256.94604492 C250.51007189 259.50473238 247.06019503 259.27232525 242.73422527 259.27669144 C242.04370486 259.27874407 241.35318444 259.2807967 240.64173916 259.28291154 C238.31075827 259.28859928 235.97983613 259.28712211 233.64884949 259.28570557 C231.96761723 259.28828818 230.2863856 259.29130105 228.60515481 259.29470897 C223.97167136 259.30279432 219.33820338 259.30456939 214.7047137 259.30530643 C209.71278076 259.30715431 204.7208559 259.31470027 199.72892761 259.32144165 C188.8075642 259.33503613 177.88620445 259.34105135 166.96483397 259.34545231 C160.14896742 259.3482127 153.3331023 259.35244967 146.51723671 259.35695648 C127.65588946 259.36915033 108.79454336 259.37944959 89.93319225 259.38283157 C88.7255216 259.38305114 87.51785094 259.38327071 86.27358421 259.38349693 C84.45768162 259.38382434 84.45768162 259.38382434 82.60509413 259.38415837 C80.15184987 259.38460184 77.6986056 259.38504841 75.24536133 259.38549805 C73.42001064 259.38583019 73.42001064 259.38583019 71.55778418 259.38616905 C51.83263902 259.39011839 32.10753077 259.40757607 12.38239988 259.43085757 C-7.85624764 259.4545529 -28.09487662 259.46703259 -48.33353823 259.46819949 C-59.70200687 259.46911725 -71.07042741 259.47489485 -82.43888283 259.4930191 C-92.11804293 259.50839553 -101.79714007 259.5135551 -111.47631005 259.505281 C-116.41674673 259.50136584 -121.35705653 259.50234623 -126.29747772 259.51633835 C-130.81832961 259.52902536 -135.3389586 259.52792572 -139.85980996 259.51574764 C-141.49709961 259.51378159 -143.13440477 259.5169107 -144.77167258 259.525592 C-146.99462363 259.53663446 -149.21678103 259.52923235 -151.43970966 259.51720047 C-152.67521228 259.51779756 -153.9107149 259.51839465 -155.18365699 259.51900983 C-160.55956986 258.92064224 -164.45376444 256.82453375 -167.85400391 252.64526367 C-168.34513672 252.05745117 -168.83626953 251.46963867 -169.34228516 250.86401367 C-172.18606683 246.78823538 -171.69622973 242.32039093 -171.70263672 237.5690918 C-171.70760162 236.69209122 -171.71256653 235.81509064 -171.71768188 234.91151428 C-171.73232148 231.99983943 -171.73911417 229.08821935 -171.74462891 226.17651367 C-171.75038593 224.14123535 -171.75614359 222.10595703 -171.76190186 220.07067871 C-171.77242175 215.7900365 -171.77825563 211.50941309 -171.78173828 207.22875977 C-171.78717651 201.79486324 -171.81109873 196.36122323 -171.83971024 190.92740631 C-171.85853462 186.71294488 -171.86355296 182.49854224 -171.86507416 178.28404236 C-171.86806497 176.28456749 -171.87596945 174.28509273 -171.88925934 172.28565979 C-172.17204249 126.40539722 -155.12238456 86.05063977 -124.54150391 52.14526367 C-123.52830078 51.0218457 -123.52830078 51.0218457 -122.49462891 49.87573242 C-116.4848682 43.57062023 -109.47946986 38.37545424 -102.54150391 33.14526367 C-101.69587891 32.50459961 -100.85025391 31.86393555 -99.97900391 31.20385742 C-70.89036593 10.02614971 -35.73045449 -0.01628108 0 0 Z " fill="#000000" transform="translate(210.54150390625,252.854736328125)"/>
<path d="M0 0 C1.02222656 0.45117188 2.04445313 0.90234375 3.09765625 1.3671875 C30.69790789 14.24003214 52.01841928 38.85032074 63 67 C64.01906511 69.87328902 64.94009621 72.76654335 65.8125 75.6875 C66.00739014 76.33944336 66.20228027 76.99138672 66.40307617 77.66308594 C69.3822457 88.27728006 70.36541824 98.75056522 70.3125 109.75 C70.30686035 110.98282715 70.3012207 112.2156543 70.29541016 113.48583984 C69.87590483 145.04011694 56.49799321 174.87697334 34 197 C30.44994631 200.16372432 26.7799901 203.11640755 23 206 C21.83210938 206.90878906 21.83210938 206.90878906 20.640625 207.8359375 C-4.13348508 226.20868357 -36.41500646 233.21745113 -66.7890625 229.50390625 C-70.91286619 228.88283174 -74.95723268 228.0184606 -79 227 C-79.66402832 226.83371094 -80.32805664 226.66742188 -81.01220703 226.49609375 C-99.02541132 221.80039966 -116.14333474 212.88679355 -129.7109375 200.11328125 C-131.97927549 197.95823848 -131.97927549 197.95823848 -134.515625 196.05078125 C-153.8246004 180.11176854 -166.90108882 151.08643017 -169.78466797 126.51855469 C-172.88445927 90.2629458 -164.19720852 58.2382708 -140.74609375 30.31640625 C-133.09062411 21.56920007 -124.6965302 14.38848077 -115 8 C-114.28972656 7.50886719 -113.57945312 7.01773437 -112.84765625 6.51171875 C-80.05382799 -14.87054889 -35.04956569 -16.12685219 0 0 Z " fill="#000000" transform="translate(306,10)"/>
</svg>
